<?xml version="1.0" standalone="no"?>
<!DOCTYPE svg PUBLIC "-//W3C//DTD SVG 20010904//EN"
 "http://www.w3.org/TR/2001/REC-SVG-20010904/DTD/svg10.dtd">
<svg version="1.0" xmlns="http://www.w3.org/2000/svg"
 width="260.000000pt" height="260.000000pt" viewBox="0 0 260.000000 260.000000"
 preserveAspectRatio="xMidYMid meet">
<metadata>
Created by potrace 1.11, written by Peter Selinger 2001-2013
</metadata>
<g transform="translate(0.000000,260.000000) scale(0.100000,-0.100000)"
fill="#000000" stroke="none">
<path d="M790 2458 c-74 -79 -172 -181 -217 -228 l-82 -85 835 -3 834 -2 1
-23 c0 -12 1 -383 2 -825 l0 -804 219 219 218 218 0 837 0 838 -838 0 -838 0
-134 -142z"/>
<path d="M212 1887 l-212 -212 0 -838 0 -837 838 0 838 0 130 137 c71 75 168
178 216 227 47 50 85 92 84 93 -2 2 -377 3 -834 3 l-832 1 -1 27 c0 15 -1 384
-1 820 -1 435 -4 792 -7 792 -3 0 -102 -96 -219 -213z"/>
</g>
</svg>
